<?xml version='1.0' encoding='UTF-8' standalone='no'?>
<!-- Created with Fritzing (http://www.fritzing.org/) -->
  <svg
  xmlns:inkscape="http://www.inkscape.org/namespaces/inkscape"
  xmlns:sodipodi="http://sodipodi.sourceforge.net/DTD/sodipodi-0.dtd"
  xmlns="http://www.w3.org/2000/svg"
  xmlns:svg="http://www.w3.org/2000/svg"
  version="1.2"
  x="0in"
  y="0in"
  width="2.4300001in"
  height="3.6033645in"
  viewBox="0 0 2430.0001 3603.3644"
  id="svg2027"
  xml:space="preserve"
  sodipodi:docname="6xAABreadboardV4.svg"
  inkscape:version="1.2.2 (732a01da63, 2022-12-09)"
  inkscape:export-filename="..\..\..\..\..\..\..\borrar.png"
  inkscape:export-xdpi="96"
  inkscape:export-ydpi="96">
  <sodipodi:namedview
    id="namedview550"
    pagecolor="#ffffff"
    bordercolor="#000000"
    borderopacity="0.25"
    inkscape:showpageshadow="2"
    inkscape:pageopacity="0.0"
    inkscape:pagecheckerboard="0"
    inkscape:deskcolor="#d1d1d1"
    inkscape:document-units="in"
    showgrid="false"
    inkscape:zoom="11.313709"
    inkscape:cx="237.3669"
    inkscape:cy="25.190678"
    inkscape:window-width="1920"
    inkscape:window-height="1017"
    inkscape:window-x="-8"
    inkscape:window-y="-8"
    inkscape:window-maximized="1"
    inkscape:current-layer="breadboard"
    showguides="true">
    <sodipodi:guide
      position="2231.9436,3128.6407"
      orientation="0,-1"
      id="guide5716"
      inkscape:locked="false"
    />
    <sodipodi:guide
      position="2242.2608,3114.2694"
      orientation="1,0"
      id="guide5718"
      inkscape:locked="false"
    />
    <sodipodi:guide
      position="2231.9431,551.37545"
      orientation="0,-1"
      id="guide5720"
      inkscape:locked="false"
    />
    <sodipodi:guide
      position="2316.7415,3148.6685"
      orientation="0,-1"
      id="guide10533"
      inkscape:locked="false"
    />
    <sodipodi:guide
      position="2277.1508,3108.613"
      orientation="0,-1"
      id="guide10535"
      inkscape:locked="false"
    />
    <sodipodi:guide
      position="2430.0002,3135.1825"
      orientation="1,0"
      id="guide10537"
      inkscape:locked="false"
    />
  </sodipodi:namedview>
  <defs
    id="defs2031">
  </defs>
  <g
    id="breadboard">
    <path
      d="M 2242.2609,1215.0105 H 0.00521822 V 31.263063 C 0.00521822,14.763468 12.894225,0 31.283281,0 H 2211.2477 c 16.9446,0 31.0132,12.430239 31.0132,31.263063 z"
      fill="#1a1a1a"
      id="path1912"
      stroke-width="13.889"
    />
    <path
      stroke="#c9c9c9"
      stroke-width="13.889"
      d="M 32.588849,862.78426 V 133.06608 c 0,-10.76362 5.902831,-19.68005 13.125119,-19.68005 7.222289,0 13.083453,8.91645 13.083453,19.68005 l 13.889016,355.9213 c 0,10.81917 5.944498,19.68004 13.12512,19.68004 7.180621,0 13.125119,-8.86089 13.125119,-19.68004 l 13.889014,-275.7428 c 0,-10.81916 5.91672,-19.69393 13.08345,-19.69393 7.23618,0 13.11124,8.87478 13.11124,19.69393 v 216.6617"
      fill="none"
      id="path1914"
    />
    <path
      stroke="#c9c9c9"
      stroke-width="13.889"
      d="m 2201.1101,191.56494 v 263.49268 c 0,10.80528 8.8751,19.66616 19.6946,19.66616 h 22.278"
      fill="none"
      id="path1918"
    />
    <rect
      y="784.828"
      width="52.625481"
      fill="#c9c9c9"
      height="219.2034"
      x="25.908234"
      id="rect1920"
      stroke-width="13.889"
    />
    <rect
      y="191.56494"
      width="44.847633"
      fill="#c9c9c9"
      height="219.24506"
      x="2157.6499"
      id="rect1922"
      stroke-width="13.889"
    />
    <path
      d="m 2118.1496,527.76454 c 0,32.51307 -26.5697,59.05401 -59.0561,59.05401 l -1854.3503,6.9e-4 c -32.48641,0 -59.05609,-26.54093 -59.05609,-59.05401 V 94.692114 c 0,-32.471407 26.56968,-59.054011 59.05609,-59.054011 h 1854.3642 c 32.4864,0 59.0561,26.582604 59.0561,59.054011 z"
      fill="#353535"
      id="path1924"
      stroke-width="13.889"
    />
    <path
      d="m 1550.3528,36.554639 h 512.6852 c 32.4864,0 59.0561,26.540937 59.0561,59.054011 v 433.16923 c 0,32.47141 -26.5697,59.05401 -59.0561,59.05401 h -512.6852 z"
      fill="#ce925d"
      id="path1926"
      stroke-width="13.889"
    />
    <path
      d="m 209.21546,564.24959 c -24.44466,0 -55.63939,-22.63826 -55.63939,-49.471 V 390.82301 c 0,26.86038 31.19473,68.9566 55.63939,68.9566 H 2050.1212 c 24.4586,0 55.6394,-42.09622 55.6394,-68.9566 v 123.96905 c 0,26.86038 -31.1808,49.471 -55.6394,49.471 l -1840.90574,4.2e-4 z"
      enable-background="new    "
      opacity="0.35"
      id="path1928"
      stroke-width="13.889"
    />
    <path
      d="m 2116.4829,307.57503 c 0,123.45529 -4.6945,223.50759 -10.514,223.50759 -5.8195,0 -5.8195,-447.002686 0,-447.002686 5.8195,0 10.514,100.067576 10.514,223.495096"
      fill="#b2b2b2"
      id="path1930"
      stroke-width="13.889"
    />
    <path
      d="m 2112.5523,383.76878 c -3.8472,0 -3.8472,-165.16262 0,-165.16262 l -0.1111,0.0139 c 0,10.1803 8.2501,18.43003 18.4446,18.43003 h 8.3334 c 10.1668,0 18.4308,8.2498 18.4308,18.44392 v 91.33097 c 0,10.13863 -8.264,18.44392 -18.4308,18.44392 h -8.3334 c -10.1945,0 -18.4446,8.2498 -18.4446,18.41614 l 0.1111,0.0833 z"
      fill="#7c7c7c"
      id="path1932"
      stroke-width="13.889"
    />
    <path
      d="m 538.87125,269.75663 -7.8334,23.61049 h -24.81968 l 41.4726,-124.88572 h 35.31977 l 42.30594,124.88572 h -24.31966 l -8.15286,-23.61049 z m 27.13914,-82.94243 h -0.33334 l -21.31964,64.80393 h 43.13928 z"
      fill="#e0e0e0"
      id="path1934"
      stroke-width="13.889"
    />
    <path
      d="m 657.03899,269.75663 -7.8334,23.61049 h -24.778 L 665.85852,168.4814 h 35.31977 l 42.30594,124.88572 h -24.31967 l -8.15285,-23.61049 z m 27.13914,-82.94243 h -0.33334 l -21.33352,64.80476 h 43.13928 z"
      fill="#e0e0e0"
      id="path1936"
      stroke-width="13.889"
    />
    <path
      d="M 812.37375,293.40962 V 168.5239 h 62.18112 c 24.48633,0 36.76422,4.95821 36.76422,32.4853 0,14.27735 -2.62502,23.98549 -17.77794,27.61039 v 0.70834 c 17.48627,1.99994 20.81964,13.49966 20.81964,29.27707 0,27.65206 -11.31955,34.81851 -37.65312,34.81851 z m 23.98633,-72.60899 h 34.43086 c 13.5418,0 16.50016,-4.16657 16.50016,-17.48572 0,-13.31915 -5.33339,-14.33291 -17.15294,-14.33291 h -33.81975 z m 0,52.12269 h 32.81974 c 14.27791,0 21.12519,-1.00001 21.12519,-16.31903 0,-13.65243 -3.00003,-17.65239 -17.11127,-17.65239 h -36.80589 z"
      fill="#e0e0e0"
      id="path1938"
      stroke-width="13.889"
    />
    <path
      d="m 988.51424,282.40952 h -0.5 c -4.16671,11.69415 -16.98627,11.9858 -27.15303,11.9858 -19.81962,0 -32.65307,-4.16656 -32.65307,-27.81872 0,-20.98561 11.0001,-26.81872 32.65307,-26.81872 10.66677,0 21.15297,0.16667 26.15302,9.99975 h 0.66667 v -11.33305 c 0,-14.15249 -1.16668,-19.15226 -18.65295,-19.15226 -9.16675,0 -16.50015,0.86112 -16.50015,12.15247 h -21.02797 c 0,-25.48551 17.54183,-26.44371 37.48646,-26.44371 28.02803,0 39.63921,4.33322 39.63921,33.65197 v 54.76245 h -21.02793 z m -39.3198,-15.81959 c 0,12.33303 4.95838,13.49967 19.15295,13.49967 11.15288,0 19.31962,-0.95834 19.31962,-13.49967 0,-12.15247 -8.9723,-12.48579 -19.31962,-12.48579 -10.66676,-0.0129 -19.15295,-0.0129 -19.15295,12.48579 z"
      fill="#e0e0e0"
      id="path1940"
      stroke-width="13.889"
    />
    <path
      d="m 1018.8756,205.96716 h 11.0001 v -19.81893 h 21.0002 v 19.81893 h 33.4725 v 15.9857 h -33.4725 v 44.80443 c 0.1945,7.9998 0.1945,11.65249 8.9723,11.65249 11.8335,0 10.5001,-9.31921 10.5001,-18.44392 h 18.4863 c 0.3333,26.44371 -6.3334,34.42962 -28.9864,34.42962 -22.9863,0 -29.9864,-5.3332 -29.9864,-27.48539 v -44.97057 h -11.0001 z"
      fill="#e0e0e0"
      id="path1942"
      stroke-width="13.889"
    />
    <path
      d="m 1089.7096,205.96716 h 11.0001 v -19.81893 h 20.9863 v 19.81893 h 33.4864 v 15.9857 h -33.4864 v 44.80443 c 0.1667,7.9998 0.1667,11.65249 8.9723,11.65249 11.8612,0 10.514,-9.31921 10.514,-18.44392 h 18.5002 c 0.3055,26.44371 -6.3473,34.42962 -29.0142,34.42962 -22.9446,0 -29.9447,-5.3332 -29.9447,-27.48539 v -44.97057 h -11.0001 v -15.97236 z"
      fill="#e0e0e0"
      id="path1944"
      stroke-width="13.889"
    />
    <path
      d="m 1249.0027,265.60381 c 0,27.48539 -15.8473,28.81874 -40.8059,28.81874 -33.4864,0 -40.2643,-10.66641 -40.2643,-44.4711 0,-31.31862 4.9584,-44.92944 40.2643,-44.92944 36.0142,0 40.8059,10.49973 40.8059,48.63767 h -60.1394 c 0,18.80503 0.5,24.81883 19.3196,24.81883 11.6668,0 19.8613,0.16667 19.8613,-12.86078 l 20.9585,-0.0139 z m -21.0002,-25.31828 c 0,-17.98572 -2.6667,-19.37449 -19.8613,-19.37449 -18.1668,0 -19.3196,3.83325 -19.3196,19.37449 z"
      fill="#e0e0e0"
      id="path1946"
      stroke-width="13.889"
    />
    <path
      d="m 1285.1836,205.96716 -0.4444,11.5001 h 0.8333 c 4.1667,-9.66642 13.1668,-12.45801 23.3197,-12.45801 18.5001,0 22.9863,10.99972 22.9863,27.48539 v 6.99982 h -19.653 v -4.49989 c 0,-8.8331 -0.8472,-13.99971 -10.6667,-13.99971 -12.4863,0 -16.153,7.20815 -15.8613,18.49948 v 53.97091 h -21.0002 v -87.44219 l 20.4863,-0.0556 z"
      fill="#e0e0e0"
      id="path1948"
      stroke-width="13.889"
    />
    <path
      d="m 1394.643,296.92354 c -4.875,19.81893 -8.8751,35.26296 -33.3059,35.26296 -3,0 -6.0001,-0.45833 -9.0001,-0.66667 v -15.83292 c 1.5,0.16667 3.0556,0.5 4.5,0.5 13.1529,0 15.1669,-12.66635 17.0419,-22.86048 h -10.1529 l -28.8197,-87.44219 h 21.6946 l 22.153,74.45651 h 0.3056 l 17.0141,-74.45651 h 21.3196 z"
      fill="#e0e0e0"
      id="path1950"
      stroke-width="13.889"
    />
    <path
      d="m 2060.8713,198.4532 c 0,19.68004 -21.3891,35.63796 -47.7782,35.63796 l -1768.43287,-1.4e-4 c -26.34746,0 -47.75043,-14.56902 -47.75043,-34.26309 V 92.386537 c 0,-19.693929 21.38908,-37.054643 47.75043,-37.054643 H 2013.0792 c 26.3891,0 47.7782,15.971812 47.7782,35.665742 V 198.4532 Z"
      enable-background="new    "
      fill="#ffffff"
      opacity="0.35"
      id="path1956"
      stroke-width="13.889"
    />
    <path
      d="m 118.04796,1125.0686 c 0,32.4714 26.5558,59.054 59.0561,59.054 H 2031.4266 c 32.4864,0 59.0561,-26.5826 59.0561,-59.054 V 691.95492 c 0,-32.4714 -26.5697,-59.05401 -59.0561,-59.05401 l -1854.32254,-6.9e-4 c -32.5003,0 -59.0561,26.5826 -59.0561,59.05401 z"
      fill="#353535"
      id="path1960"
      stroke-width="13.889"
    />
    <path
      d="M 689.78929,632.94189 H 177.10406 c -32.5003,0 -59.0561,26.5826 -59.0561,59.05401 v 433.1144 c 0,32.4714 26.5558,59.054 59.0561,59.054 h 512.68523 z"
      fill="#ce925d"
      id="path1962"
      stroke-width="13.889"
    />
    <path
      d="m 2026.9682,1161.5675 c 24.4447,0 55.6394,-22.6799 55.6394,-49.4849 v -123.969 c 0,26.8604 -31.1947,68.9566 -55.6394,68.9566 l -1840.91961,6e-4 c -24.44467,0 -55.6394,-42.0963 -55.6394,-68.95665 v 123.96905 c 0,26.8604 31.19473,49.4849 55.6394,49.4849 z"
      enable-background="new    "
      opacity="0.35"
      id="path1964"
      stroke-width="13.889"
    />
    <path
      d="m 119.70075,904.88048 c 0,123.45532 4.72227,223.50762 10.54177,223.50762 5.8195,0 5.8195,-447.00272 0,-447.00272 -5.8195,0 -10.54177,100.06758 -10.54177,223.4951"
      fill="#b2b2b2"
      id="path1966"
      stroke-width="13.889"
    />
    <path
      d="m 123.63135,981.08673 c 3.86114,0 3.86114,-165.16262 0,-165.16262 l 0.11111,0.0139 c 0,10.1803 -8.25008,18.43003 -18.40295,18.43003 l -8.375074,-7e-4 c -10.125092,0 -18.430724,8.29147 -18.430724,18.44392 v 91.34486 c 0,10.15253 8.305632,18.44392 18.430724,18.44392 h 8.375074 c 10.15287,0 18.40295,8.2498 18.40295,18.44392 l -0.11111,0.0431 z"
      fill="#7c7c7c"
      id="path1968"
      stroke-width="13.889"
    />
    <path
      d="m 1709.257,914.36529 7.8334,-23.62439 h 24.8197 l -41.4726,124.8996 h -35.3198 l -42.3059,-124.8996 h 24.3196 l 8.1668,23.62439 z m -27.1392,82.95631 h 0.3334 l 21.3196,-64.79004 h -43.1531 z"
      fill="#e0e0e0"
      id="path1970"
      stroke-width="13.889"
    />
    <path
      d="m 1591.0892,914.36529 7.8334,-23.62439 h 24.8197 l -41.4726,124.8996 h -35.3198 L 1504.644,890.7409 h 24.3197 l 8.1667,23.62439 z m -27.1391,82.95631 h 0.3333 l 21.3197,-64.79004 h -43.1532 z"
      fill="#e0e0e0"
      id="path1972"
      stroke-width="13.889"
    />
    <path
      d="m 1435.7684,890.69979 v 124.89961 h -62.1951 c -24.4863,0 -36.7642,-4.9443 -36.7642,-32.48529 0,-14.27735 2.625,-23.99939 17.7779,-27.61039 v -0.69445 c -17.4862,-2.01384 -20.7918,-13.51356 -20.7918,-29.27708 0,-27.66594 11.2917,-34.81851 37.6531,-34.81851 l 64.3201,-3e-5 z m -24.0002,20.50019 h -32.806 c -14.2779,0 -21.1251,1.00001 -21.1251,16.31904 0,13.65243 3,17.65238 17.1529,17.65238 h 36.7643 v -33.97142 z m 0,52.13659 h -34.4587 c -13.5418,0 -16.5002,4.15267 -16.5002,17.48571 0,13.33304 5.3334,14.33291 17.1529,14.33291 h 33.8198 v -31.81862 z"
      fill="#e0e0e0"
      id="path1974"
      stroke-width="13.889"
    />
    <path
      d="m 1259.6278,901.69989 h 0.5 c 4.1528,-11.70803 16.9724,-11.99969 27.1531,-11.99969 19.8335,0 32.6669,4.15268 32.6669,27.80484 0,20.9995 -10.9862,26.8326 -32.6669,26.8326 -10.6668,0 -21.153,-0.16666 -26.1392,-10.01363 h -0.6666 v 11.33305 c 0,14.16638 1.1666,19.15226 18.639,19.15226 9.1668,0 16.5002,-0.86112 16.5002,-12.15248 h 21.0418 c 0,25.47163 -17.5001,26.42983 -37.4864,26.42983 -27.9725,0 -39.6254,-4.33322 -39.6254,-33.63809 v -54.77633 h 20.9863 z m 39.3059,15.8182 c 0,-12.31914 -4.9444,-13.48577 -19.1529,-13.48577 -11.1668,0 -19.3196,0.94445 -19.3196,13.48577 0,12.16636 8.9584,12.49969 19.3196,12.49969 10.6668,0.0139 19.1529,0.0139 19.1529,-12.49969 z"
      fill="#e0e0e0"
      id="path1976"
      stroke-width="13.889"
    />
    <path
      d="m 1229.2664,978.15615 h -11.0001 v 19.83282 h -21.0002 v -19.83282 h -33.4725 v -15.97182 h 33.4725 v -44.81832 c -0.1944,-8.01369 -0.1944,-11.70804 -8.9723,-11.70804 -11.8334,0 -10.5001,9.37477 -10.5001,18.51336 h -18.4862 c -0.3334,-26.4576 6.3334,-34.45739 28.9863,-34.45739 22.9864,0 29.9864,5.31931 29.9864,27.48539 v 44.9711 h 11.0001 z"
      fill="#e0e0e0"
      id="path1978"
      stroke-width="13.889"
    />
    <path
      d="m 1158.4325,978.15615 h -11.0001 v 19.83282 h -20.9863 v -19.83282 h -33.4865 v -15.97182 h 33.4865 v -44.81832 c -0.1667,-8.01369 -0.1667,-11.70804 -8.9723,-11.70804 -11.8613,0 -10.514,9.37477 -10.514,18.51336 h -18.5002 c -0.3056,-26.4576 6.3473,-34.45739 29.0142,-34.45739 22.9446,0 29.9447,5.31931 29.9447,27.48539 v 44.9711 h 11.0001 v 15.98572 z"
      fill="#e0e0e0"
      id="path1980"
      stroke-width="13.889"
    />
    <path
      d="m 999.13934,918.53199 c 0,-27.49928 15.84736,-28.83262 40.80596,-28.83262 33.4864,0 40.2642,10.6664 40.2642,44.48499 0,31.3325 -4.9584,44.92943 -40.2642,44.92943 -36.0143,0 -40.80596,-10.49973 -40.80596,-48.63766 h 60.13946 c 0,-18.80503 -0.5,-24.83273 -19.3196,-24.83273 -11.6668,0 -19.8613,-0.16667 -19.8613,12.87467 l -20.95856,3e-5 z m 20.98626,25.30579 c 0,17.99961 2.6667,19.38837 19.8613,19.38837 18.1669,0 19.3197,-3.83324 19.3197,-19.38837 z"
      fill="#e0e0e0"
      id="path1982"
      stroke-width="13.889"
    />
    <path
      d="m 962.94456,978.15615 0.45834,-11.48583 h -0.83334 c -4.1667,9.66642 -13.16679,12.44413 -23.31966,12.44413 -18.48628,0 -22.98632,-10.98584 -22.98632,-27.48539 v -6.99983 h 19.65296 v 4.49989 c 0,8.81922 0.83334,13.99971 10.66676,13.99971 12.48623,0 16.15293,-7.22204 15.86126,-18.49948 v -53.9709 h 20.9863 v 87.44218 l -20.4863,0.0556 z"
      fill="#e0e0e0"
      id="path1984"
      stroke-width="13.889"
    />
    <path
      d="m 853.48523,887.18587 c 4.87505,-19.84671 8.87508,-35.29074 33.30586,-35.29074 3.00003,0 6.00006,0.45834 9.00008,0.66668 v 15.83292 c -1.50001,-0.16667 -3.04169,-0.50001 -4.50004,-0.50001 -13.16678,0 -15.1668,12.66636 -17.04182,22.86049 h 10.15287 l 28.81971,87.44219 h -21.69464 l -22.15298,-74.45652 h -0.31945 l -17.01405,74.45652 h -21.31964 z"
      fill="#e0e0e0"
      id="path1986"
      stroke-width="13.889"
    />
    <path
      d="m 175.32627,795.74337 c 0,19.72171 21.38908,35.63797 47.75043,35.63797 h 1768.4329 c 26.3474,0 47.7504,-14.56903 47.7504,-34.26309 V 689.67657 c 0,-19.69393 -21.403,-37.05464 -47.7504,-37.05464 l -1768.40512,6.9e-4 c -26.34746,0 -47.75044,15.97181 -47.75044,35.66574 z"
      enable-background="new    "
      fill="#ffffff"
      opacity="0.35"
      id="path1992"
      stroke-width="13.889"
    />
    <path
      d="m 111.85346,1.9860598 27.22248,21.1383872 c 0,0 19.41684,21.985617 36.33366,45.429442 10.08343,13.971933 18.52795,63.178911 30.97251,75.650831 12.48622,12.44413 30.30583,15.13847 45.43097,15.13847 4.20837,0 350.68375,0 354.89212,0 15.13903,0 32.91697,-2.63882 45.41708,-15.13847 12.47234,-12.47191 20.95853,-61.679036 31.00029,-75.650831 16.90293,-23.443825 36.33366,-45.429442 36.33366,-45.429442 L 746.6787,1.9860598 Z"
      fill="#1a1a1a"
      id="path1996"
      stroke-width="13.889"
    />
    <path
      d="m 151.15938,17.944053 7.09729,2.638815 c 0,0 0,9.819201 15.77792,20.26338 9.45842,6.235959 17.30571,8.958109 28.9586,14.541243 11.66677,5.555412 28.26414,6.749826 42.44483,6.749826 3.9167,0 363.7672,0 367.75335,0 14.18069,0 30.73639,-1.194414 42.38928,-6.749826 11.68066,-5.583189 19.55573,-8.305339 28.9586,-14.541243 15.83347,-10.444179 15.81958,-20.26338 15.81958,-20.26338 l 6.9584,-2.611051 z"
      enable-background="new    "
      fill="#ffffff"
      opacity="0.2"
      id="path1998"
      stroke-width="13.889"
    />
    <path
      d="m 1496.1162,1.9860598 27.2224,21.1383872 c 0,0 19.4169,21.985617 36.3337,45.429442 10.0834,13.971933 18.5418,63.178911 30.9725,75.650831 12.4723,12.44413 30.3058,15.13847 45.431,15.13847 4.2222,0 350.6837,0 354.8921,0 15.139,0 32.9031,-2.63882 45.431,-15.13847 12.4584,-12.47191 20.9446,-61.679036 30.9864,-75.650831 16.9029,-23.443825 36.3197,-45.429442 36.3197,-45.429442 l 27.2364,-21.1383872 z"
      fill="#1a1a1a"
      id="path2002"
      stroke-width="13.889"
    />
    <path
      d="m 1535.4221,17.944053 7.0973,2.638815 c 0,0 0,9.819201 15.7779,20.26338 9.4584,6.235959 17.2918,8.958109 28.9586,14.541243 11.7084,5.555412 28.2641,6.749826 42.4448,6.749826 3.9167,0 363.7811,0 367.7672,0 14.1807,0 30.7364,-1.194414 42.4032,-6.749826 11.6807,-5.583189 19.5419,-8.305339 28.9864,-14.541243 15.8057,-10.444179 15.7918,-20.26338 15.7918,-20.26338 l 6.9584,-2.611051 z"
      enable-background="new    "
      fill="#ffffff"
      opacity="0.2"
      id="path2004"
      stroke-width="13.889"
    />
    <path
      d="M 2242.2607,2409.1871 H 0.00521825 V 1194.1762 H 2242.2607 Z"
      fill="#1a1a1a"
      id="path2562"
      stroke-width="13.89"
    />
    <path
      stroke="#c9c9c9"
      stroke-width="13.89"
      d="m 32.306942,2056.9604 v -729.7182 c 0,-10.7636 5.903641,-19.68 13.126921,-19.68 7.22328,0 13.08525,8.9164 13.08525,19.68 l 13.890923,355.9214 c 0,10.8191 5.945314,19.68 13.126921,19.68 7.181607,0 13.126922,-8.8609 13.126922,-19.68 L 112.5548,1407.4208 c 0,-10.8192 5.91754,-19.694 13.08525,-19.694 7.23717,0 13.11303,8.8748 13.11303,19.694 v 216.6617"
      fill="none"
      id="path2564"
    />
    <rect
      y="1979.0042"
      width="52.632706"
      fill="#c9c9c9"
      height="219.2034"
      x="25.625408"
      id="rect2570"
      stroke-width="13.89"
    />
    <path
      d="m 2118.154,1721.9407 c 0,32.5131 -26.5734,59.054 -59.0642,59.054 l -1854.60488,7e-4 c -32.49086,0 -59.06419,-26.5409 -59.06419,-59.054 v -433.0731 c 0,-32.4714 26.57333,-59.054 59.06419,-59.054 H 2059.1036 c 32.4909,0 59.0643,26.5826 59.0643,59.054 z"
      fill="#353535"
      id="path2574"
      stroke-width="13.89"
    />
    <path
      d="m 1550.2791,1230.7308 h 512.7557 c 32.4908,0 59.0641,26.5409 59.0641,59.054 v 433.1693 c 0,32.4714 -26.5733,59.054 -59.0641,59.054 h -512.7557 z"
      fill="#ce925d"
      id="path2576"
      stroke-width="13.89"
    />
    <path
      d="m 208.95781,1758.4258 c -24.44803,0 -55.64704,-22.6383 -55.64704,-49.471 v -123.9556 c 0,26.8604 31.19901,68.9566 55.64704,68.9566 H 2050.1162 c 24.4619,0 55.647,-42.0962 55.647,-68.9566 v 123.969 c 0,26.8604 -31.1851,49.471 -55.647,49.471 l -1841.15839,5e-4 z"
      enable-background="new    "
      opacity="0.35"
      id="path2578"
      stroke-width="13.89"
    />
    <path
      d="m 2116.4871,1501.7512 c 0,123.4553 -4.6952,223.5076 -10.5154,223.5076 -5.8203,0 -5.8203,-447.0027 0,-447.0027 5.8202,0 10.5154,100.0676 10.5154,223.4951"
      fill="#b2b2b2"
      id="path2580"
      stroke-width="13.89"
    />
    <path
      d="m 2112.5559,1577.945 c -3.8478,0 -3.8478,-165.1627 0,-165.1627 l -0.1111,0.014 c 0,10.1803 8.2512,18.4301 18.4471,18.4301 h 8.3346 c 10.1681,0 18.4333,8.2498 18.4333,18.4439 v 91.3309 c 0,10.1386 -8.2652,18.444 -18.4333,18.444 h -8.3346 c -10.1959,0 -18.4471,8.2498 -18.4471,18.4161 l 0.1111,0.083 z"
      fill="#7c7c7c"
      id="path2582"
      stroke-width="13.89"
    />
    <path
      d="m 538.65885,1463.9328 -7.83448,23.6105 H 506.0013 l 41.47829,-124.8857 h 35.32462 l 42.31174,124.8857 h -24.323 l -8.15397,-23.6105 z m 27.14287,-82.9424 h -0.33334 l -21.32255,64.8039 h 43.1452 z"
      fill="#e0e0e0"
      id="path2584"
      stroke-width="13.89"
    />
    <path
      d="m 656.84283,1463.9328 -7.83449,23.6105 h -24.78141 l 41.43663,-124.8857 h 35.32461 l 42.31175,124.8857 h -24.323 l -8.15398,-23.6105 z m 27.14286,-82.9424 h -0.33334 l -21.33646,64.8047 h 43.1452 z"
      fill="#e0e0e0"
      id="path2586"
      stroke-width="13.89"
    />
    <path
      d="m 812.1989,1487.5858 v -124.8857 h 62.18966 c 24.4897,0 36.76927,4.9582 36.76927,32.4853 0,14.2773 -2.62539,23.9855 -17.78037,27.6104 v 0.7083 c 17.48866,1.9999 20.82248,13.4997 20.82248,29.2771 0,27.652 -11.32111,34.8185 -37.65829,34.8185 z m 23.98962,-72.609 h 34.4356 c 13.54366,0 16.50242,-4.1666 16.50242,-17.4857 0,-13.3192 -5.33412,-14.3329 -17.1553,-14.3329 h -33.82439 z m 0,52.1227 h 32.82426 c 14.27986,0 21.12809,-1 21.12809,-16.319 0,-13.6525 -3.00044,-17.6524 -17.11363,-17.6524 h -36.81093 z"
      fill="#e0e0e0"
      id="path2588"
      stroke-width="13.89"
    />
    <path
      d="m 988.36357,1476.5857 h -0.50014 c -4.16727,11.6941 -16.98859,11.9858 -27.15675,11.9858 -19.82235,0 -32.65756,-4.1666 -32.65756,-27.8187 0,-20.9856 11.00161,-26.8187 32.65756,-26.8187 10.66822,0 21.15588,0.1666 26.15662,9.9996 h 0.66681 v -11.333 c 0,-14.1525 -1.16682,-19.1522 -18.65551,-19.1522 -9.16801,0 -16.50241,0.8611 -16.50241,12.1524 h -21.03086 c 0,-25.4855 17.54423,-26.4437 37.49159,-26.4437 28.03188,0 39.64468,4.3332 39.64468,33.652 v 54.7624 h -21.03084 z m -39.32519,-15.8196 c 0,12.333 4.95906,13.4997 19.15558,13.4997 11.15441,0 19.32227,-0.9583 19.32227,-13.4997 0,-12.1525 -8.97354,-12.4858 -19.32227,-12.4858 -10.66822,-0.013 -19.15558,-0.013 -19.15558,12.4858 z"
      fill="#e0e0e0"
      id="path2590"
      stroke-width="13.89"
    />
    <path
      d="m 1018.7291,1400.1433 h 11.0016 v -19.8189 h 21.0031 v 19.8189 h 33.4771 v 15.9857 h -33.4771 v 44.8045 c 0.1945,7.9998 0.1945,11.6524 8.9736,11.6524 11.835,0 10.5015,-9.3192 10.5015,-18.4439 h 18.4888 c 0.3333,26.4437 -6.3342,34.4296 -28.9903,34.4296 -22.9895,0 -29.9905,-5.3332 -29.9905,-27.4854 v -44.9705 h -11.0017 z"
      fill="#e0e0e0"
      id="path2592"
      stroke-width="13.89"
    />
    <path
      d="m 1089.5728,1400.1433 h 11.0017 v -19.8189 h 20.9891 v 19.8189 h 33.491 v 15.9857 h -33.491 v 44.8045 c 0.1667,7.9998 0.1667,11.6524 8.9736,11.6524 11.8628,0 10.5154,-9.3192 10.5154,-18.4439 h 18.5027 c 0.3056,26.4437 -6.3481,34.4296 -29.0181,34.4296 -22.9478,0 -29.9489,-5.3332 -29.9489,-27.4854 v -44.9705 h -11.0016 v -15.9724 z"
      fill="#e0e0e0"
      id="path2594"
      stroke-width="13.89"
    />
    <path
      d="m 1248.8878,1459.78 c 0,27.4854 -15.8495,28.8187 -40.8115,28.8187 -33.491,0 -40.2698,-10.6663 -40.2698,-44.4711 0,-31.3186 4.9591,-44.9294 40.2698,-44.9294 36.0192,0 40.8115,10.4997 40.8115,48.6376 h -60.1477 c 0,18.8051 0.5002,24.8189 19.3223,24.8189 11.6684,0 19.864,0.1667 19.864,-12.8608 z m -21.003,-25.3183 c 0,-17.9857 -2.6671,-19.3745 -19.8641,-19.3745 -18.1693,0 -19.3222,3.8332 -19.3222,19.3745 z"
      fill="#e0e0e0"
      id="path2596"
      stroke-width="13.89"
    />
    <path
      d="m 1285.0737,1400.1433 -0.4445,11.5001 h 0.8335 c 4.1673,-9.6664 13.1686,-12.458 23.3229,-12.458 18.5027,0 22.9895,10.9997 22.9895,27.4854 v 6.9998 h -19.6557 v -4.4999 c 0,-8.833 -0.8474,-13.9997 -10.6682,-13.9997 -12.488,0 -16.1552,7.2082 -15.8635,18.4994 v 53.971 h -21.003 v -87.4422 l 20.4891,-0.056 z"
      fill="#e0e0e0"
      id="path2598"
      stroke-width="13.89"
    />
    <path
      d="m 1394.548,1491.0997 c -4.8757,19.8189 -8.8763,35.263 -33.3104,35.263 -3.0004,0 -6.0009,-0.4584 -9.0013,-0.6667 v -15.8329 c 1.5002,0.1666 3.056,0.5 4.5006,0.5 13.1548,0 15.1689,-12.6664 17.0442,-22.8605 h -10.1542 l -28.8237,-87.4422 h 21.6976 l 22.156,74.4565 h 0.3056 l 17.0164,-74.4565 h 21.3226 z"
      fill="#e0e0e0"
      id="path2600"
      stroke-width="13.89"
    />
    <path
      d="m 2060.8678,1392.6294 c 0,19.68 -21.392,35.6379 -47.7847,35.6379 l -1768.67566,-10e-5 c -26.35108,0 -47.75699,-14.569 -47.75699,-34.2631 v -107.4414 c 0,-19.6939 21.39201,-37.0546 47.75699,-37.0546 H 2013.0692 c 26.3927,0 47.7847,15.9718 47.7847,35.6657 v 107.4556 z"
      enable-background="new    "
      fill="#ffffff"
      opacity="0.35"
      id="path2606"
      stroke-width="13.89"
    />
    <path
      d="m 117.77779,2319.2448 c 0,32.4714 26.55944,59.054 59.0642,59.054 H 2031.4191 c 32.4908,0 59.0641,-26.5826 59.0641,-59.054 v -433.1137 c 0,-32.4714 -26.5733,-59.054 -59.0641,-59.054 l -1854.57711,-7e-4 c -32.50476,0 -59.0642,26.5826 -59.0642,59.054 z"
      fill="#353535"
      id="path2610"
      stroke-width="13.89"
    />
    <path
      d="M 689.59761,1827.1181 H 176.84199 c -32.50476,0 -59.0642,26.5826 -59.0642,59.054 v 433.1143 c 0,32.4714 26.55944,59.054 59.0642,59.054 h 512.75562 z"
      fill="#ce925d"
      id="path2612"
      stroke-width="13.89"
    />
    <path
      d="m 2026.96,2355.7437 c 24.4482,0 55.6471,-22.6799 55.6471,-49.4849 v -123.969 c 0,26.8604 -31.1989,68.9566 -55.6471,68.9566 l -1841.17225,5e-4 c -24.44803,0 -55.64704,-42.0962 -55.64704,-68.9566 v 123.9691 c 0,26.8604 31.19901,49.4849 55.64704,49.4849 z"
      enable-background="new    "
      opacity="0.35"
      id="path2614"
      stroke-width="13.89"
    />
    <path
      d="m 119.43081,2099.0567 c 0,123.4552 4.72291,223.5075 10.54321,223.5075 5.8203,0 5.8203,-447.0026 0,-447.0026 -5.8203,0 -10.54321,100.0675 -10.54321,223.4951"
      fill="#b2b2b2"
      id="path2616"
      stroke-width="13.89"
    />
    <path
      d="m 123.36194,2175.2629 c 3.86168,0 3.86168,-165.1626 0,-165.1626 l 0.11111,0.014 c 0,10.1802 -8.25121,18.43 -18.40547,18.43 l -8.376227,-7e-4 c -10.126483,0 -18.433254,8.2915 -18.433254,18.4439 v 91.3449 c 0,10.1524 8.306771,18.4439 18.433254,18.4439 h 8.376227 c 10.15426,0 18.40547,8.2498 18.40547,18.4439 l -0.11111,0.042 z"
      fill="#7c7c7c"
      id="path2618"
      stroke-width="13.89"
    />
    <path
      d="m 1709.2052,2108.5415 7.8345,-23.6244 h 24.8231 l -41.4783,124.8996 h -35.3246 l -42.3118,-124.8996 h 24.323 l 8.1679,23.6244 z m -27.1428,82.9563 h 0.3334 l 21.3225,-64.7901 h -43.1591 z"
      fill="#e0e0e0"
      id="path2620"
      stroke-width="13.89"
    />
    <path
      d="m 1591.0213,2108.5415 7.8344,-23.6244 h 24.8231 l -41.4783,124.8996 h -35.3246 l -42.3118,-124.8996 h 24.323 l 8.1679,23.6244 z m -27.1429,82.9563 h 0.3334 l 21.3225,-64.7901 h -43.1591 z"
      fill="#e0e0e0"
      id="path2622"
      stroke-width="13.89"
    />
    <path
      d="m 1435.6791,2084.876 v 124.8996 h -62.2036 c -24.4897,0 -36.7693,-4.9444 -36.7693,-32.4853 0,-14.2774 2.6254,-23.9994 17.7804,-27.6104 v -0.6945 c -17.4887,-2.0139 -20.7947,-13.5136 -20.7947,-29.277 0,-27.666 11.2933,-34.8185 37.6583,-34.8185 h 64.3289 z m -24.0036,20.5002 h -32.8103 c -14.2799,0 -21.1281,1 -21.1281,16.319 0,13.6523 3.0004,17.6524 17.1553,17.6524 h 36.7692 v -33.9714 z m 0,52.1365 h -34.4633 c -13.5437,0 -16.5024,4.1527 -16.5024,17.4858 0,13.333 5.3341,14.3329 17.1552,14.3329 h 33.8244 v -31.8187 z"
      fill="#e0e0e0"
      id="path2624"
      stroke-width="13.89"
    />
    <path
      d="m 1259.5144,2095.8761 h 0.5001 c 4.1534,-11.7081 16.9747,-11.9997 27.1568,-11.9997 19.8362,0 32.6714,4.1527 32.6714,27.8048 0,20.9995 -10.9877,26.8326 -32.6714,26.8326 -10.6683,0 -21.1559,-0.1667 -26.1427,-10.0137 h -0.6669 v 11.3332 c 0,14.1664 1.1669,19.1522 18.6417,19.1522 9.168,0 16.5024,-0.8611 16.5024,-12.1524 h 21.0447 c 0,25.4716 -17.5025,26.4298 -37.4916,26.4298 -27.9763,0 -39.6308,-4.3332 -39.6308,-33.6381 v -54.7763 h 20.9892 z m 39.3113,15.8182 c 0,-12.3192 -4.9452,-13.4859 -19.1556,-13.4859 -11.1683,0 -19.3223,0.9445 -19.3223,13.4859 0,12.1663 8.9597,12.4997 19.3223,12.4997 10.6682,0.014 19.1556,0.014 19.1556,-12.4997 z"
      fill="#e0e0e0"
      id="path2626"
      stroke-width="13.89"
    />
    <path
      d="m 1229.1488,2172.3323 h -11.0016 v 19.8328 h -21.0031 v -19.8328 h -33.4771 v -15.9718 h 33.4771 v -44.8183 c -0.1944,-8.0137 -0.1944,-11.708 -8.9735,-11.708 -11.8351,0 -10.5015,9.3746 -10.5015,18.5133 h -18.4888 c -0.3334,-26.4576 6.3342,-34.4574 28.9903,-34.4574 22.9895,0 29.9905,5.3192 29.9905,27.4854 v 44.9711 h 11.0016 z"
      fill="#e0e0e0"
      id="path2628"
      stroke-width="13.89"
    />
    <path
      d="m 1158.3051,2172.3323 h -11.0016 v 19.8328 h -20.9892 v -19.8328 h -33.491 v -15.9718 h 33.491 v -44.8183 c -0.1666,-8.0137 -0.1666,-11.708 -8.9735,-11.708 -11.8629,0 -10.5154,9.3746 -10.5154,18.5133 h -18.5027 c -0.3056,-26.4576 6.3481,-34.4574 29.0181,-34.4574 22.9478,0 29.9488,5.3192 29.9488,27.4854 v 44.9711 h 11.0016 v 15.9857 z"
      fill="#e0e0e0"
      id="path2630"
      stroke-width="13.89"
    />
    <path
      d="m 998.99013,2112.7082 c 0,-27.4993 15.84957,-28.8327 40.81157,-28.8327 33.491,0 40.2698,10.6664 40.2698,44.485 0,31.3325 -4.9591,44.9295 -40.2698,44.9295 -36.0192,0 -40.81157,-10.4997 -40.81157,-48.6377 h 60.14767 c 0,-18.805 -0.5001,-24.8327 -19.3222,-24.8327 -11.6684,0 -19.8641,-0.1667 -19.8641,12.8747 h -20.96137 z m 20.98917,25.3058 c 0,17.9996 2.6671,19.3883 19.864,19.3883 18.1694,0 19.3223,-3.8332 19.3223,-19.3883 z"
      fill="#e0e0e0"
      id="path2632"
      stroke-width="13.89"
    />
    <path
      d="m 962.7904,2172.3323 0.45833,-11.4858 h -0.83348 c -4.16727,9.6664 -13.16859,12.4442 -23.32286,12.4442 -18.48881,0 -22.98948,-10.986 -22.98948,-27.4854 v -7 h 19.65566 v 4.4999 c 0,8.8193 0.83348,13.9998 10.66823,13.9998 12.48794,0 16.15515,-7.222 15.86344,-18.4995 v -53.9709 h 20.98918 v 87.4422 l -20.48911,0.055 z"
      fill="#e0e0e0"
      id="path2634"
      stroke-width="13.89"
    />
    <path
      d="m 853.31604,2081.362 c 4.87571,-19.8467 8.87628,-35.2907 33.31042,-35.2907 3.00043,0 6.00088,0.4583 9.00132,0.6667 v 15.8329 c -1.50022,-0.1667 -3.04211,-0.5 -4.50066,-0.5 -13.1686,0 -15.16889,12.6664 -17.04416,22.8605 h 10.15426 l 28.82367,87.4422 h -21.69762 l -22.15602,-74.4565 h -0.31945 l -17.01637,74.4565 h -21.32256 z"
      fill="#e0e0e0"
      id="path2636"
      stroke-width="13.89"
    />
    <path
      d="m 175.06396,1989.9195 c 0,19.7218 21.39201,35.638 47.75699,35.638 H 1991.4965 c 26.3511,0 47.7571,-14.569 47.7571,-34.2631 v -107.4417 c 0,-19.6939 -21.406,-37.0546 -47.7571,-37.0546 l -1768.64777,7e-4 c -26.35109,0 -47.75699,15.9718 -47.75699,35.6657 z"
      enable-background="new    "
      fill="#ffffff"
      opacity="0.35"
      id="path2642"
      stroke-width="13.89"
    />
    <path
      d="m 2242.2607,3572.0876 c 0,18.4578 -16.0823,31.2769 -30.7095,31.2769 l -2180.263624,-2e-4 c -20.711366,0 -31.56053627,-10.5019 -31.28235778,-31.2767 V 2388.3532 H 2242.2607 Z"
      fill="#1a1a1a"
      id="path3137"
      stroke-width="13.89"
    />
    <path
      stroke="#c9c9c9"
      stroke-width="13.89"
      d="m 32.593322,3251.1374 v -729.7181 c 0,-10.7636 5.903643,-19.6801 13.126923,-19.6801 7.22328,0 13.085248,8.9165 13.085248,19.6801 l 13.890923,355.9213 c 0,10.8191 5.945315,19.68 13.126921,19.68 7.181607,0 13.126923,-8.8609 13.126923,-19.68 l 13.89092,-275.7428 c 0,-10.8192 5.91754,-19.694 13.08525,-19.694 7.23717,0 13.11303,8.8748 13.11303,19.694 v 216.6617"
      fill="none"
      id="path3139"
    />
    <path
      stroke="#c9c9c9"
      stroke-width="13.89"
      d="m 2094.673,3211.5968 v 216.6617 c 0,10.8191 5.9176,19.6939 13.0853,19.6939 7.2371,0 13.1269,-8.8748 13.1269,-19.6939 l 13.8909,-275.7428 c 0,-10.8191 5.8897,-19.68 13.1131,-19.68 7.2094,0 13.0712,8.8609 13.0712,19.68 l 13.891,355.9213 c 0,10.8052 5.9453,19.6801 13.1269,19.6801 7.1816,0 13.1269,-8.8749 13.1269,-19.6801 v -436.7679 c 0,-10.7774 8.8764,-19.68 19.6974,-19.68 h 22.2811"
      fill="none"
      id="path3141"
    />
    <rect
      y="3173.1812"
      width="52.632706"
      fill="#c9c9c9"
      height="219.2034"
      x="25.911789"
      id="rect3145"
      stroke-width="13.89"
    />
    <path
      d="m 2118.4403,2916.1177 c 0,32.5131 -26.5733,59.054 -59.0641,59.054 l -1854.60489,7e-4 c -32.49086,0 -59.0642,-26.5409 -59.0642,-59.054 v -433.0731 c 0,-32.4714 26.57334,-59.054 59.0642,-59.054 H 2059.39 c 32.4909,0 59.0642,26.5826 59.0642,59.054 z"
      fill="#353535"
      id="path3149"
      stroke-width="13.89"
    />
    <path
      d="m 1550.5655,2424.9078 h 512.7557 c 32.4908,0 59.0641,26.541 59.0641,59.054 v 433.1693 c 0,32.4714 -26.5733,59.054 -59.0641,59.054 h -512.7557 z"
      fill="#ce925d"
      id="path3151"
      stroke-width="13.89"
    />
    <path
      d="m 209.24419,2952.6028 c -24.44803,0 -55.64704,-22.6383 -55.64704,-49.471 v -123.9556 c 0,26.8604 31.19901,68.9566 55.64704,68.9566 H 2050.4026 c 24.4619,0 55.647,-42.0962 55.647,-68.9566 v 123.969 c 0,26.8604 -31.1851,49.471 -55.647,49.471 l -1841.15841,5e-4 z"
      enable-background="new    "
      opacity="0.35"
      id="path3153"
      stroke-width="13.89"
    />
    <path
      d="m 2116.7735,2695.9282 c 0,123.4553 -4.6952,223.5076 -10.5155,223.5076 -5.8202,0 -5.8202,-447.0027 0,-447.0027 5.8203,0 10.5155,100.0676 10.5155,223.4951"
      fill="#b2b2b2"
      id="path3155"
      stroke-width="13.89"
    />
    <path
      d="m 2112.8423,2772.122 c -3.8478,0 -3.8478,-165.1627 0,-165.1627 l -0.1111,0.014 c 0,10.1803 8.2512,18.4301 18.4471,18.4301 h 8.3346 c 10.1681,0 18.4333,8.2498 18.4333,18.4439 v 91.3309 c 0,10.1386 -8.2652,18.444 -18.4333,18.444 h -8.3346 c -10.1959,0 -18.4471,8.2498 -18.4471,18.4161 l 0.1111,0.083 z"
      fill="#7c7c7c"
      id="path3157"
      stroke-width="13.89"
    />
    <path
      d="m 538.94524,2658.1098 -7.83449,23.6105 h -24.82308 l 41.4783,-124.8857 h 35.32461 l 42.31175,124.8857 h -24.323 l -8.15398,-23.6105 z m 27.14286,-82.9424 h -0.33334 l -21.32257,64.8039 h 43.1452 z"
      fill="#e0e0e0"
      id="path3159"
      stroke-width="13.89"
    />
    <path
      d="m 657.1292,2658.1098 -7.83448,23.6105 h -24.78141 l 41.43663,-124.8857 h 35.32461 l 42.31175,124.8857 h -24.323 l -8.15398,-23.6105 z m 27.14286,-82.9424 h -0.33333 l -21.33646,64.8047 h 43.1452 z"
      fill="#e0e0e0"
      id="path3161"
      stroke-width="13.89"
    />
    <path
      d="m 812.48527,2681.7628 v -124.8857 h 62.18967 c 24.48969,0 36.76928,4.9582 36.76928,32.4853 0,14.2773 -2.62539,23.9855 -17.78039,27.6104 v 0.7083 c 17.48868,1.9999 20.8225,13.4997 20.8225,29.2771 0,27.652 -11.3211,34.8185 -37.6583,34.8185 z m 23.98964,-72.609 h 34.43559 c 13.54365,0 16.50242,-4.1666 16.50242,-17.4857 0,-13.3192 -5.33412,-14.3329 -17.1553,-14.3329 h -33.82439 z m 0,52.1227 h 32.82424 c 14.27987,0 21.1281,-1 21.1281,-16.319 0,-13.6525 -3.00044,-17.6524 -17.11362,-17.6524 h -36.81094 z"
      fill="#e0e0e0"
      id="path3163"
      stroke-width="13.89"
    />
    <path
      d="m 988.64996,2670.7627 h -0.50014 c -4.16729,11.6941 -16.9886,11.9858 -27.15676,11.9858 -19.82235,0 -32.65756,-4.1666 -32.65756,-27.8187 0,-20.9856 11.00161,-26.8187 32.65756,-26.8187 10.66824,0 21.15587,0.1666 26.15661,9.9996 h 0.66681 v -11.333 c 0,-14.1525 -1.16681,-19.1522 -18.6555,-19.1522 -9.16801,0 -16.50241,0.8611 -16.50241,12.1524 h -21.03086 c 0,-25.4855 17.54423,-26.4437 37.4916,-26.4437 28.03189,0 39.64469,4.3333 39.64469,33.652 v 54.7624 h -21.03085 z m -39.3252,-15.8196 c 0,12.333 4.95906,13.4997 19.15558,13.4997 11.15442,0 19.32227,-0.9583 19.32227,-13.4997 0,-12.1525 -8.97353,-12.4858 -19.32227,-12.4858 -10.66823,-0.013 -19.15558,-0.013 -19.15558,12.4858 z"
      fill="#e0e0e0"
      id="path3165"
      stroke-width="13.89"
    />
    <path
      d="m 1019.0155,2594.3203 h 11.0016 v -19.8189 h 21.0031 v 19.8189 h 33.4771 v 15.9857 h -33.4771 v 44.8045 c 0.1944,7.9998 0.1944,11.6524 8.9735,11.6524 11.8351,0 10.5016,-9.3192 10.5016,-18.4439 h 18.4888 c 0.3333,26.4437 -6.3343,34.4296 -28.9904,34.4296 -22.9894,0 -29.9905,-5.3332 -29.9905,-27.4853 v -44.9706 h -11.0016 z"
      fill="#e0e0e0"
      id="path3167"
      stroke-width="13.89"
    />
    <path
      d="m 1089.8592,2594.3203 h 11.0016 v -19.8189 h 20.9892 v 19.8189 h 33.491 v 15.9857 h -33.491 v 44.8045 c 0.1667,7.9998 0.1667,11.6524 8.9736,11.6524 11.8628,0 10.5154,-9.3192 10.5154,-18.4439 h 18.5027 c 0.3056,26.4437 -6.3482,34.4296 -29.0181,34.4296 -22.9479,0 -29.9489,-5.3332 -29.9489,-27.4853 v -44.9706 h -11.0016 v -15.9724 z"
      fill="#e0e0e0"
      id="path3169"
      stroke-width="13.89"
    />
    <path
      d="m 1249.1742,2653.957 c 0,27.4854 -15.8495,28.8187 -40.8115,28.8187 -33.491,0 -40.2698,-10.6663 -40.2698,-44.4711 0,-31.3186 4.9591,-44.9294 40.2698,-44.9294 36.0191,0 40.8115,10.4997 40.8115,48.6377 h -60.1477 c 0,18.805 0.5002,24.8188 19.3223,24.8188 11.6684,0 19.864,0.1667 19.864,-12.8608 z m -21.0031,-25.3183 c 0,-17.9857 -2.667,-19.3745 -19.864,-19.3745 -18.1693,0 -19.3223,3.8333 -19.3223,19.3745 z"
      fill="#e0e0e0"
      id="path3171"
      stroke-width="13.89"
    />
    <path
      d="m 1285.3601,2594.3203 -0.4445,11.5001 h 0.8335 c 4.1673,-9.6664 13.1686,-12.458 23.3229,-12.458 18.5027,0 22.9894,10.9997 22.9894,27.4854 v 6.9998 h -19.6556 v -4.4999 c 0,-8.833 -0.8474,-13.9997 -10.6683,-13.9997 -12.4879,0 -16.1551,7.2082 -15.8634,18.4994 v 53.971 h -21.0031 v -87.4422 l 20.4891,-0.056 z"
      fill="#e0e0e0"
      id="path3173"
      stroke-width="13.89"
    />
    <path
      d="m 1394.8344,2685.2767 c -4.8757,19.819 -8.8763,35.263 -33.3104,35.263 -3.0004,0 -6.0009,-0.4584 -9.0013,-0.6667 v -15.8329 c 1.5002,0.1667 3.056,0.5 4.5006,0.5 13.1547,0 15.1689,-12.6664 17.0442,-22.8605 h -10.1543 l -28.8236,-87.4422 h 21.6976 l 22.156,74.4565 h 0.3056 l 17.0164,-74.4565 h 21.3226 z"
      fill="#e0e0e0"
      id="path3175"
      stroke-width="13.89"
    />
    <path
      d="m 2061.1542,2586.8064 c 0,19.68 -21.392,35.6379 -47.7847,35.6379 l -1768.67568,-1e-4 c -26.35108,0 -47.757,-14.569 -47.757,-34.2631 v -107.4414 c 0,-19.6939 21.39203,-37.0546 47.757,-37.0546 H 2013.3556 c 26.3927,0 47.7847,15.9718 47.7847,35.6657 v 107.4556 z"
      enable-background="new    "
      fill="#ffffff"
      opacity="0.35"
      id="path3181"
      stroke-width="13.89"
    />
    <path
      d="m 118.06417,3513.4218 c 0,32.4714 26.55944,59.054 59.0642,59.054 H 2031.7055 c 32.4908,0 59.0641,-26.5826 59.0641,-59.054 v -433.1137 c 0,-32.4714 -26.5733,-59.054 -59.0641,-59.054 l -1854.57713,-7e-4 c -32.50476,0 -59.0642,26.5826 -59.0642,59.054 z"
      fill="#353535"
      id="path3185"
      stroke-width="13.89"
    />
    <path
      d="M 689.884,3021.2951 H 177.12837 c -32.50476,0 -59.0642,26.5826 -59.0642,59.054 v 433.1143 c 0,32.4715 26.55944,59.0541 59.0642,59.0541 H 689.884 Z"
      fill="#ce925d"
      id="path3187"
      stroke-width="13.89"
    />
    <path
      d="m 2027.2464,3549.9207 c 24.448,0 55.647,-22.6799 55.647,-49.4849 v -123.969 c 0,26.8604 -31.199,68.9566 -55.647,68.9566 l -1841.17227,5e-4 c -24.44803,0 -55.64704,-42.0962 -55.64704,-68.9566 v 123.9691 c 0,26.8604 31.19901,49.4849 55.64704,49.4849 z"
      enable-background="new    "
      opacity="0.35"
      id="path3189"
      stroke-width="13.89"
    />
    <path
      d="m 119.71719,3293.2337 c 0,123.4553 4.72291,223.5076 10.54321,223.5076 5.8203,0 5.8203,-447.0027 0,-447.0027 -5.8203,0 -10.54321,100.0675 -10.54321,223.4951"
      fill="#b2b2b2"
      id="path3191"
      stroke-width="13.89"
    />
    <path
      d="m 123.64832,3369.4399 c 3.86168,0 3.86168,-165.1626 0,-165.1626 l 0.11111,0.014 c 0,10.1804 -8.25121,18.43 -18.40547,18.43 l -8.376227,-7e-4 c -10.126482,0 -18.433254,8.2915 -18.433254,18.4439 v 91.3449 c 0,10.1524 8.306772,18.4439 18.433254,18.4439 h 8.376227 c 10.15426,0 18.40547,8.2498 18.40547,18.4439 l -0.11111,0.042 z"
      fill="#7c7c7c"
      id="path3193"
      stroke-width="13.89"
    />
    <path
      d="m 1709.4916,3302.7185 7.8345,-23.6244 h 24.8231 l -41.4783,124.8996 h -35.3246 l -42.3118,-124.8996 h 24.323 l 8.1679,23.6244 z m -27.1429,82.9563 h 0.3333 l 21.3226,-64.7901 h -43.1592 z"
      fill="#e0e0e0"
      id="path3195"
      stroke-width="13.89"
    />
    <path
      d="m 1591.3076,3302.7185 7.8345,-23.6244 h 24.8231 l -41.4783,124.8996 h -35.3246 l -42.3118,-124.8996 h 24.323 l 8.1679,23.6244 z m -27.1428,82.9563 h 0.3334 l 21.3225,-64.7901 h -43.1591 z"
      fill="#e0e0e0"
      id="path3197"
      stroke-width="13.89"
    />
    <path
      d="m 1435.9655,3279.053 v 124.8996 h -62.2036 c -24.4897,0 -36.7693,-4.9444 -36.7693,-32.4853 0,-14.2774 2.6254,-23.9994 17.7804,-27.6104 v -0.6945 c -17.4887,-2.0139 -20.7947,-13.5135 -20.7947,-29.277 0,-27.666 11.2933,-34.8185 37.6583,-34.8185 h 64.3289 z m -24.0036,20.5002 h -32.8103 c -14.2799,0 -21.1281,1 -21.1281,16.319 0,13.6525 3.0004,17.6524 17.1553,17.6524 h 36.7692 v -33.9714 z m 0,52.1365 h -34.4633 c -13.5437,0 -16.5025,4.1527 -16.5025,17.4858 0,13.333 5.3342,14.3329 17.1553,14.3329 h 33.8244 v -31.8187 z"
      fill="#e0e0e0"
      id="path3199"
      stroke-width="13.89"
    />
    <path
      d="m 1259.8008,3290.0531 h 0.5 c 4.1534,-11.708 16.9747,-11.9997 27.1567,-11.9997 19.8363,0 32.6715,4.1527 32.6715,27.8048 0,20.9995 -10.9878,26.8326 -32.6715,26.8326 -10.6682,0 -21.1558,-0.1666 -26.1427,-10.0137 h -0.6668 v 11.3332 c 0,14.1664 1.1668,19.1522 18.6416,19.1522 9.168,0 16.5024,-0.8611 16.5024,-12.1524 h 21.0448 c 0,25.4716 -17.5026,26.4298 -37.4916,26.4298 -27.9763,0 -39.6308,-4.3332 -39.6308,-33.6381 v -54.7763 h 20.9892 z m 39.3113,15.8182 c 0,-12.3192 -4.9452,-13.4858 -19.1556,-13.4858 -11.1683,0 -19.3223,0.9444 -19.3223,13.4858 0,12.1663 8.9597,12.4997 19.3223,12.4997 10.6682,0.014 19.1556,0.014 19.1556,-12.4997 z"
      fill="#e0e0e0"
      id="path3201"
      stroke-width="13.89"
    />
    <path
      d="m 1229.4352,3366.5093 h -11.0016 v 19.8328 h -21.0031 v -19.8328 h -33.4771 v -15.9718 h 33.4771 v -44.8183 c -0.1944,-8.0137 -0.1944,-11.708 -8.9735,-11.708 -11.8351,0 -10.5015,9.3748 -10.5015,18.5133 h -18.4889 c -0.3333,-26.4576 6.3343,-34.4574 28.9904,-34.4574 22.9895,0 29.9905,5.3194 29.9905,27.4854 v 44.9711 h 11.0016 z"
      fill="#e0e0e0"
      id="path3203"
      stroke-width="13.89"
    />
    <path
      d="m 1158.5915,3366.5093 h -11.0016 v 19.8328 h -20.9892 v -19.8328 h -33.491 v -15.9718 h 33.491 v -44.8183 c -0.1667,-8.0137 -0.1667,-11.708 -8.9735,-11.708 -11.8629,0 -10.5154,9.3748 -10.5154,18.5133 h -18.5028 c -0.3055,-26.4576 6.3482,-34.4574 29.0182,-34.4574 22.9478,0 29.9488,5.3194 29.9488,27.4854 v 44.9711 h 11.0016 v 15.9857 z"
      fill="#e0e0e0"
      id="path3205"
      stroke-width="13.89"
    />
    <path
      d="m 999.27652,3306.8852 c 0,-27.4993 15.84958,-28.8327 40.81148,-28.8327 33.4911,0 40.2698,10.6664 40.2698,44.485 0,31.3325 -4.959,44.9295 -40.2698,44.9295 -36.0191,0 -40.81148,-10.4997 -40.81148,-48.6377 h 60.14768 c 0,-18.805 -0.5,-24.8327 -19.3223,-24.8327 -11.6683,0 -19.864,-0.1667 -19.864,12.8747 h -20.96138 z m 20.98918,25.3058 c 0,17.9996 2.667,19.3883 19.864,19.3883 18.1693,0 19.3223,-3.8332 19.3223,-19.3883 z"
      fill="#e0e0e0"
      id="path3207"
      stroke-width="13.89"
    />
    <path
      d="m 963.07677,3366.5093 0.45834,-11.4858 h -0.83348 c -4.16727,9.6664 -13.16859,12.4442 -23.32285,12.4442 -18.48882,0 -22.98949,-10.986 -22.98949,-27.4854 v -6.9999 h 19.65567 v 4.4999 c 0,8.8192 0.83348,13.9997 10.66822,13.9997 12.48795,0 16.15515,-7.222 15.86344,-18.4995 v -53.9709 h 20.98917 v 87.4422 l -20.4891,0.056 z"
      fill="#e0e0e0"
      id="path3209"
      stroke-width="13.89"
    />
    <path
      d="m 853.60241,3275.5391 c 4.87571,-19.8468 8.87631,-35.2908 33.31043,-35.2908 3.00045,0 6.00088,0.4584 9.00132,0.6667 v 15.8329 c -1.50022,-0.1667 -3.04211,-0.5 -4.50065,-0.5 -13.16861,0 -15.16889,12.6664 -17.04417,22.8605 h 10.15426 l 28.82366,87.4422 h -21.69761 l -22.15602,-74.4565 h -0.31945 l -17.01638,74.4565 h -21.32257 z"
      fill="#e0e0e0"
      id="path3211"
      stroke-width="13.89"
    />
    <path
      d="m 175.35034,3184.0966 c 0,19.7217 21.39201,35.6379 47.75699,35.6379 H 1991.7829 c 26.3511,0 47.757,-14.569 47.757,-34.2631 v -107.4416 c 0,-19.694 -21.4059,-37.0547 -47.757,-37.0547 l -1768.64779,7e-4 c -26.35108,0 -47.757,15.9718 -47.757,35.6657 z"
      enable-background="new    "
      fill="#ffffff"
      opacity="0.35"
      id="path3217"
      stroke-width="13.89"
    />
    <path
      d="m 111.86882,3598.642 27.2262,-21.1801 c 0,0 19.41951,-21.9717 36.33866,-45.4016 10.0848,-13.972 18.53049,-63.1789 30.97676,-75.6647 12.48793,-12.472 30.30998,-15.1385 45.43721,-15.1385 4.20895,0 350.7319,0 354.94084,0 15.14111,0 32.9215,2.611 45.42332,15.1385 12.47406,12.4858 20.9614,61.6929 31.00455,75.6647 16.90525,23.4299 36.33865,45.4016 36.33865,45.4016 l 27.22621,21.1801 z"
      fill="#1a1a1a"
      id="path3233"
      stroke-width="13.89"
    />
    <path
      d="m 151.18013,3582.6849 7.09826,-2.611 c 0,0 0,-9.8331 15.78009,-20.2773 9.45972,-6.236 17.30809,-8.972 28.96257,-14.5134 11.66838,-5.5694 28.26803,-6.7499 42.45066,-6.7499 3.91725,0 363.81715,0 367.80384,0 14.18265,0 30.74062,1.1805 42.3951,6.7499 11.68227,5.5275 19.55843,8.2776 28.96258,14.5134 15.83565,10.4442 15.82176,20.2773 15.82176,20.2773 l 6.95935,2.5693 z"
      id="path3235"
      stroke-width="13.89"
    />
    <path
      d="m 1496.3216,3598.642 27.2261,-21.1801 c 0,0 19.4196,-21.9717 36.3386,-45.4016 10.0848,-13.972 18.5445,-63.1789 30.9768,-75.6647 12.474,-12.472 30.31,-15.1385 45.4372,-15.1385 4.2229,0 350.732,0 354.9409,0 15.1411,0 32.9075,2.611 45.4372,15.1385 12.474,12.4997 20.9475,61.6929 30.9906,75.6647 16.9053,23.4299 36.3248,45.4016 36.3248,45.4016 l 27.2401,21.1801 z"
      fill="#1a1a1a"
      id="path3239"
      stroke-width="13.89"
    />
    <path
      d="m 1535.6328,3582.6849 7.0982,-2.611 c 0,0 0,-9.8331 15.7802,-20.2773 9.4596,-6.236 17.2941,-8.972 28.9626,-14.5134 11.71,-5.5694 28.268,-6.7499 42.4507,-6.7499 3.9171,0 363.8309,0 367.8176,0 14.1826,0 30.7407,1.1805 42.409,6.7499 11.6823,5.5275 19.5445,8.2776 28.9904,14.5134 15.8078,10.4442 15.7939,20.2773 15.7939,20.2773 l 6.9594,2.5693 z"
      id="path3241"
      stroke-width="13.89"
    />
    <path
      stroke="#c9c9c9"
      stroke-width="13.89"
      d="m 2203.8551,2653.5118 v -729.7181 c 0,-10.7636 -5.9037,-19.6801 -13.1269,-19.6801 -7.2233,0 -13.0853,8.9165 -13.0853,19.6801 l -13.8909,355.9213 c 0,10.8191 -5.9454,19.68 -13.127,19.68 -7.1816,0 -13.1269,-8.8609 -13.1269,-19.68 l -13.8908,-275.7428 c 0,-10.8192 -5.9176,-19.694 -13.0853,-19.694 -7.2373,0 -13.113,8.8748 -13.113,19.694 v 216.6617"
      fill="none"
      id="path3139-7"
    />
    <rect
      y="2589.98"
      width="52.632706"
      fill="#c9c9c9"
      height="219.2034"
      x="-2210.7993"
      id="rect3145-5"
      transform="scale(-1,1)"
      stroke-width="13.89"
    />
    <path
      stroke="#c9c9c9"
      stroke-width="13.89"
      d="M 2203.8551,1445.1675 V 715.44976 c 0,-10.76357 -5.9037,-19.68002 -13.1269,-19.68002 -7.2233,0 -13.0853,8.91645 -13.0853,19.68002 l -13.8909,355.92104 c 0,10.8191 -5.9454,19.6801 -13.127,19.6801 -7.1816,0 -13.1269,-8.861 -13.1269,-19.6801 l -13.8908,-275.74258 c 0,-10.81913 -5.9176,-19.69392 -13.0853,-19.69392 -7.2373,0 -13.113,8.87479 -13.113,19.69392 v 216.66158"
      fill="none"
      id="path3139-7-3"
    />
    <rect
      y="1381.6355"
      width="52.632706"
      fill="#c9c9c9"
      height="219.2034"
      x="-2210.7993"
      id="rect3145-5-3"
      transform="scale(-1,1)"
      stroke-width="13.89"
    />
    <path
      id="rect10591-8"
      d="m 2242.2607,3032.3538 h 187.7394 v 40.0555 h -187.7394 z"
      inkscape:label="line1688"
      fill="#000000"
      stroke-width="0"
      stroke-linecap="round"
      paint-order="markers fill stroke"
      fill-opacity="1"
    />
    <path
      id="rect10591"
      d="m 2242.2607,454.69611 h 187.7394 v 40.0555 h -187.7394 z m 0,0 h 187.7394 v 40.0555 h -187.7394 z"
      inkscape:label="line10"
      fill="#ff0000"
      stroke-width="0"
      stroke-linecap="round"
      paint-order="markers fill stroke"
    />
    <rect
      id="connector1pin"
      width="40"
      height="40.840271"
      x="2390"
      y="3031.5688"
      fill="none"
      stroke="none"
      stroke-width="0"
      inkscape:label="connector1pin"
    />
    <rect
      id="connector0pin"
      width="40"
      height="40.055645"
      x="2390"
      y="454.69589"
      fill="none"
      stroke="none"
      stroke-width="0"
      inkscape:label="connector0pin"
    />
  </g>
</svg>
